<svg viewBox="-40 0 511 512" xmlns="http://www.w3.org/2000/svg"><path d="m156.082031 190.667969c-30.417969 0-55.167969-24.75-55.167969-55.167969s24.75-55.167969 55.167969-55.167969c30.421875 0 55.167969 24.75 55.167969 55.167969s-24.746094 55.167969-55.167969 55.167969zm0-80.335938c-13.875 0-25.167969 11.289063-25.167969 25.167969s11.292969 25.167969 25.167969 25.167969c13.878907 0 25.167969-11.289063 25.167969-25.167969s-11.289062-25.167969-25.167969-25.167969zm0 0"/><path d="m216.335938 271h-120.503907c-8.285156 0-15-6.714844-15-15v-20.082031c0-41.492188 33.757813-75.25 75.25-75.25 41.492188 0 75.253907 33.757812 75.253907 75.25v20.082031c0 8.285156-6.71875 15-15 15zm-105.503907-30h90.503907v-5.082031c0-24.953125-20.300782-45.25-45.253907-45.25-24.949219 0-45.25 20.296875-45.25 45.25zm0 0"/><path d="m412.347656 158.53125h-83.546875c-30.417969 0-55.167969-24.746094-55.167969-55.164062v-83.550782c0-8.28125 6.714844-15 15-15 8.285157 0 15 6.71875 15 15v83.550782c0 13.875 11.289063 25.164062 25.167969 25.164062h83.546875c8.285156 0 15 6.71875 15 15 0 8.285156-6.714844 15-15 15zm0 0"/><path d="m377 512h-321.332031c-30.421875 0-55.167969-24.746094-55.167969-55.167969v-401.664062c0-30.421875 24.746094-55.167969 55.167969-55.167969h232.964843c3.976563 0 7.792969 1.582031 10.605469 4.394531l128.535157 128.53125c2.8125 2.8125 4.394531 6.628907 4.394531 10.605469v313.300781c-.003907 30.421875-24.75 55.167969-55.167969 55.167969zm-321.332031-482c-13.878907 0-25.167969 11.289062-25.167969 25.167969v401.664062c0 13.878907 11.289062 25.167969 25.167969 25.167969h321.332031c13.878906 0 25.167969-11.289062 25.167969-25.167969v-307.085937l-119.746094-119.746094zm0 0"/><path d="m336.835938 431.667969h-241.003907c-8.285156 0-15-6.714844-15-15 0-8.285157 6.714844-15 15-15h241.003907c8.28125 0 15 6.714843 15 15 0 8.285156-6.71875 15-15 15zm0 0"/><path d="m336.835938 351.332031h-241.003907c-8.285156 0-15-6.714843-15-15 0-8.28125 6.714844-15 15-15h241.003907c8.28125 0 15 6.71875 15 15 0 8.285157-6.71875 15-15 15zm0 0"/><path d="m336.835938 271h-40.171876c-8.28125 0-15-6.714844-15-15s6.71875-15 15-15h40.171876c8.28125 0 15 6.714844 15 15s-6.71875 15-15 15zm0 0"/></svg>