<svg id="Layer_1" enable-background="new 0 0 512 512" height="512" viewBox="0 0 512 512" width="512" xmlns="http://www.w3.org/2000/svg"><g clip-rule="evenodd" fill-rule="evenodd"><path d="m31 369.901h73.381v8h-73.381zm422.083 33.11h17.459v8h-17.459zm-127.727-17.232h31.768v8h-31.768zm-265.499 0h23.275v8h-23.275zm214.035 17.232h17.458v8h-17.458zm-242.892 0h15.441v8h-15.441zm110.071-33.11h18.345v8h-18.345zm55.036 0h199.263v8h-199.263zm233.94 0h50.953v8h-50.953z" fill="#626266"/><path d="m177.761 117.991h13.898v-17.003h117.175v17.003h17.898v62.588h-72.486v9.003h54.588v26.345h-73.604v28.691h35.124v44.69h-25.002v-18.345h-10.122v36.466h-17.003v15.66h-18.121v61.577h18.346v26.345h-44.691v-33.111h-18.345v-19.24h-10.345v19.24h-18.345v6.766h18.346v26.345h-44.691v-66.892h-18.345v-18.792h-18.346v-17.003h-18.345v-17.003h-18.345v-100.397h26.345v36.243h18.345v17.003h18.345v18.792h32.717v-18.345h15.674v-18.345h15.985v-18.345h19.35v-89.936zm49.137 8h-9.003v9.003h9.003z" fill="#f2d1a5"/><path d="m404.207 141.814h21.003v8.949h8.837v130.43h8.276v-91.949h8.837v-8.948h25.003v8.948h8.837v120.531h-8.837v9.844h-9.396l-.001 11.186h-32.719v80.206h-42.677v-124.951h-32.719v-11.185h-9.397v-9.844h-8.837v-75.787h8.837v-8.948h25.003v8.948h8.837v47.204h8.276v-85.685h8.837v-8.949z" fill="#6cf5c2"/><path d="m295.034 100.989h13.8v17.003h-13.8zm-212.551 224.338h18.345v18.792h-18.792v-18.792h-18.346v-17.003h-18.345v-17.003h-18.345v-18.792h18.792v17.003h18.345v17.003h18.345v18.792zm230.449-207.336v49.988h-72.486v21.603h13.8v-9.003h72.486v-62.588zm-17.898 71.591h13.8v26.345h-73.604v28.691h-13.8v-41.291h73.604zm-38.48 55.036v32.09h-11.202v12.6h25.002v-44.69zm-21.323 26.345v36.466h-17.003v15.66h-18.121v61.577h-13.8v-74.177h18.121v-15.66h17.003v-23.866zm-30.579 113.703v13.745h-30.891v12.6h44.691v-26.345zm-59.581-26.006v19.24c-10.715 0-3.085 0-13.8 0 0-6.413 0-12.827 0-19.24zm-13.799 26.006h13.8v26.345h-44.691v-12.6h30.891z" fill="#dabc95"/><path d="m420.247 141.814h4.963v8.949h8.837v130.43h-13.8zm-50.953 133.061h22.076v11.186h-32.719v-11.186h-9.397v-9.844h-8.837v-11.186h18.234v9.844h10.643zm101.906-94.579v116.88h-8.837v9.844h-9.396v11.186h-32.719v80.207h-28.878v12.6h42.677v-80.207h32.719v-11.186h9.396v-9.844h8.838v-120.532h-8.837v-8.949h-4.963zm-101.906 0h4.963v8.949h8.837v47.204h-13.8z" fill="#61ddaf"/></g></svg>